<svg xmlns="http://www.w3.org/2000/svg" width="134" height="28" fill="none" viewBox="0 0 134 28">
    <path fill="#232333" d="M86.004 22.246l.12-.101.074.121.014.176-.127.155-.221.155-.154.149-.134-.101.047-.156-.1-.114-.181-.412-.154-.155-.04.033.06.203.134.175.207.554.388-.034-.154.5-.147.189-.114.23-.006.505.04.149-.402.317.14.155-.14.122v.142l-.274.303h-.188l-.127.088h-.12l-.04-.317-.181-.507-.007-.357.08-.162-.107-.19.014-.249-.134-.162.067-.189-.08-.148-.188.006-.073-.074-.175.108-.087-.067-.167.128-.341-.365-.167-.357.127-.19-.074-.087.16-.358.382-.48.234-.053.302-.014.14.034.268.263.067-.1.147-.021.228.088.2.006.154-.195-.107-.068-.214-.007-.174-.25-.06.014-.054.182-.12-.121-.014-.142-.127-.108-.067-.007.12.129-.053.155-.1.013.047-.128-.12-.054-.088-.108-.22.027-.02.081-.128.06-.047.15-.194.1-.08-.074h-.087l-.014-.27.188-.121.127-.007-.02-.108-.107-.094.18-.04.188-.27h.16l-.04-.095.094-.054.007.087.214.061.194-.162.007-.101.18-.128-.173.02v-.135l.053-.135h-.053l-.188.21.047.127-.08.183-.215-.17-.14.102-.06-.25.254-.162-.007-.094.154-.115.275-.067s.482.141.508.114l-.067.115h-.18l.174.162.167-.196s1.171.993 1.292 2.262l-.1.108-.208-.19-.154.02-.147-.161-.014.182c.014 0 .208.155.221.19zm-3.64-2.335l-.135.216-.1.047-.18-.31.1-.109.02-.155-.322-.202.12-.115.396-.101.448-.068.402.128-.134.426-.616.243zm-.202 4.218l-.147.236.02.311-.107.25-.214.06-.074.142.02.075-.153.391-.188.047-.02.102-.12.1.04.082-.06.04c-.101.007-.483-.263-.483-.263l.074-.398-.073-.176.013-.344-.328-.358-.281-.5.073-.215-.02-.06.181-.426-.187-.04-.315-.284-.288-.095-.294-.182-.134-.236c.02-1.364 1.325-2.538 1.325-2.538h.06l.141-.128v-.095l.06.02h.107l.107.102-.087.128c-.026.08-.475.35-.475.35l.04.15.261.114.034.135.08-.155.154-.081.007-.108.147-.236.207.1-.046.109.174-.02s.06.121.053.141c-.007.02-.02.095-.02.095l.087.007.087.1v.075l-.247.088h-.181l-.208.121.342.007-.094.176-.281.06-.094.156-.2.087-.094.216-.255.23-.04.304-.14-.196-.195-.04-.02.1-.2.007-.208.162c-.047.19.02.351.02.351l.127.04.108-.046.073-.108h.1l-.046.33.174.014.06.304.214.047.014-.047.267-.162.201.135.301-.007.114.277.214.047.1.243.663.364-.027.216zm-.71-4.185v.095h-.113l-.14-.081.113-.081.14.067zm.208.871l-.053.095-.054-.183.067.04.04.048zm-.415-1.255v.033l.261.04.088.15.127.074-.127.114-.014-.013-.395-.23-.18.135-.067.156h-.141l.08-.176.127-.108.241-.175zm1.982.378l-.154.1-.094-.046v-.095l.08.007.094-.06.074.094zm.234.492l.06.135-.12.061-.047-.155.107-.04zm.053-.182h.087l.094.243.094.081-.087.115-.16.04.026-.33-.054-.054v-.095zm-.756-1.674c-2.215 0-4.016 1.816-4.016 4.05s1.8 4.05 4.016 4.05 4.016-1.816 4.016-4.05-1.8-4.05-4.016-4.05z"/>
    <path fill="#ED1C24" d="M8.493 27.042c4.63 0 8.528-3.377 8.528-8.528 0-5.152-3.898-8.424-8.528-8.424C3.863 10.09 0 13.362 0 18.514c0 5.151 3.864 8.528 8.493 8.528zm0-2.855c-2.958 0-5.43-2.297-5.43-5.673 0-3.342 2.472-5.57 5.43-5.57 2.994 0 5.5 2.228 5.5 5.57 0 3.376-2.506 5.673-5.5 5.673zM29.661 10.09c-1.775 0-4.42.835-5.395 2.82v-2.472h-3.028v16.256h3.028v-8.807c0-3.516 2.715-4.804 4.978-4.804 2.262 0 3.933 1.671 3.933 4.386v9.225h3.028v-9.399c.035-4.56-2.506-7.205-6.544-7.205zM48.639 27.042c4.63 0 8.528-3.377 8.528-8.528 0-5.152-3.898-8.424-8.528-8.424-4.63 0-8.493 3.272-8.493 8.424 0 5.151 3.863 8.528 8.493 8.528zm0-2.855c-2.959 0-5.43-2.297-5.43-5.673 0-3.342 2.471-5.57 5.43-5.57 2.993 0 5.5 2.228 5.5 5.57 0 3.376-2.507 5.673-5.5 5.673zM69.807 10.09c-1.775 0-4.42.835-5.395 2.82v-2.472h-3.029v16.256h3.029v-8.807c0-3.516 2.715-4.804 4.977-4.804 2.263 0 3.934 1.671 3.934 4.386v9.225h3.028v-9.399c.035-4.56-2.506-7.205-6.544-7.205zM88.978 26.693h3.029V1.562h-3.029v25.131zM98.77 6.47c1.183 0 2.158-.87 2.158-2.02 0-1.148-.975-2.018-2.158-2.018-1.15 0-2.124.87-2.124 2.019 0 1.148.975 2.019 2.124 2.019zm-1.497 20.223h3.028V10.438h-3.028v16.255zM113.538 4.416h1.219V1.562h-1.741c-4.351 0-6.126 2.923-6.126 7.17v1.706h-3.133v2.61h3.133v13.645h3.028V13.048h3.794v-2.61h-3.794V8.314c-.035-2.123.731-3.898 3.62-3.898zM131.999 18.513c0-5.151-3.446-8.423-8.076-8.423-4.63 0-8.354 3.272-8.354 8.423 0 5.152 3.724 8.528 8.354 8.528 3.133 0 6.057-1.462 7.484-4.281l-2.646-1.044c-.905 1.636-2.75 2.471-4.734 2.471-2.784 0-4.873-1.427-5.325-4.316h13.227c.035-.453.07-.905.07-1.358zm-13.263-1.253c.488-2.924 2.437-4.316 5.187-4.316 2.68 0 4.664 1.532 5.047 4.316h-10.234z"/>
</svg>
